<?xml version="1.0" encoding="UTF-8"?>
<svg id="Layer_1" xmlns="http://www.w3.org/2000/svg" xmlns:xlink="http://www.w3.org/1999/xlink" version="1.1" viewBox="0 0 1440 960">
  <!-- Generator: Adobe Illustrator 29.8.1, SVG Export Plug-In . SVG Version: 2.1.1 Build 2)  -->
  <defs>
    <style>
      .st0 {
        mask: url(#mask);
      }

      .st1 {
        fill: none;
        stroke: #f40;
        stroke-miterlimit: 10;
      }

      .st2 {
        fill: #fff;
        stroke: #fff;
      }
    </style>
    <mask id="mask" x="-174.9" y="486.6" width="2070.3" height="501.7" maskUnits="userSpaceOnUse">
      <g id="mask0_8602_49746">
        <path class="st2" d="M-4.1,987.8v-500.7h1612.1v500.7H-4.1Z"/>
      </g>
    </mask>
  </defs>
  <g class="st0">
    <path class="st1" d="M-139.2,915.7c60.5-69.5,224.9-118,390.5-115.2,132.7,2.3,265.8,34,392.7,16,92.6-13.2,158.6-50.4,202.7-89.4,44.1-39,72.3-81.4,122.2-119,49.9-37.5,128.7-71,225.2-75.6,81.6-3.8,160,13.5,231.4,31.6,71.4,18,145.1,37.8,226.9,39.4M-140.9,913.3c37-41,112.1-73.6,199-91.2,52.6-10.7,109.3-16,168.2-16s14.8.1,22.2.3c61.3,1.4,123.1,8,183.8,12.8,69.8,5.6,138.6,9,206.4-.3,73.3-9.8,130.7-31.6,175.4-59.2,12.8-7.9,24.3-16.3,34.8-24.8,19.9-16.4,36.6-33.7,52.7-51.1,21.9-23.6,43-47.4,71.7-69.4,3.6-2.8,7.4-5.6,11.4-8.4,34.4-24,81.2-45.5,136.9-57.3,25.3-5.3,52.2-8.6,80.3-9.5,52.6-1.6,103.8,5.5,153.3,14.9,27.8,5.3,54.8,11.3,81.1,17.3,23.1,5.3,46.4,10.5,69.9,15.2,50.7,10.2,102.4,18,158,17.9M-142.6,911c37.8-40.7,115.5-71.7,201.1-87,51.8-9.2,106.6-12.9,165.1-12.2,7.3,0,14.7.3,21.9.4,60.9,1.8,122.7,7.4,182.8,11.3,69,4.5,137.1,6.5,204.9-2.2,74.5-9.6,133.2-28.1,180.7-54.5,13.6-7.5,25.9-15.7,37-24.2,21-16.2,38.6-33.8,55-51.4,22.3-23.9,43.2-48.2,71.7-70.7,3.6-2.9,7.4-5.7,11.4-8.5,34.4-24.5,82.1-46.5,139-57.7,25.9-5.1,53.1-7.9,81.5-8.3,53-.8,104.2,7.1,154.5,16.5,28.2,5.3,56.1,11,82.8,16.4,23.7,4.8,47.3,9.4,71,13.5,51.1,8.7,102.7,14.8,157.7,13.3M-144.2,908.7c38.7-40.3,118.7-69.9,203.3-82.8,51.1-7.8,104.1-9.8,161.9-8.5,7.3.2,14.5.4,21.8.6,60.5,2.1,122.5,6.9,182,9.8,68.3,3.4,135.6,4.2,203.3-4.1,75.7-9.3,135.9-24.6,185.9-49.7,14.4-7.2,27.4-15.2,39.1-23.6,22.2-16,40.6-33.8,57.3-51.6,22.7-24.3,43.2-49,71.5-71.9,3.6-2.9,7.4-5.8,11.4-8.7,34.4-25,83.1-47.6,141.3-58.1,26.5-4.8,54-7.1,82.7-7.1,53.2.1,104.7,8.8,155.8,18.1,28.8,5.2,57.1,10.5,84.6,15.4,24.1,4.3,48.1,8.3,72.2,11.7,51.6,7.3,103,11.7,157.6,8.8M-146,906.3c39.7-40,122.1-68.1,205.4-78.5,50.4-6.3,101.4-6.6,158.6-4.6,7.1.3,14.4.6,21.6.8,60.1,2.5,122.1,6.3,181.1,8.3,67.5,2.3,134.2,1.8,201.7-6.1,76.9-9,138.5-21.1,191.2-45,15.2-6.8,29-14.7,41.4-23,23.4-15.9,42.6-33.8,59.6-51.9,23-24.6,43.2-49.8,71.5-73.2,3.6-3,7.4-6,11.4-8.9,34.4-25.5,84-48.6,143.4-58.6,27.2-4.6,55-6.5,83.8-5.9,53.5.9,105.3,10.5,157.2,19.7,29.3,5.2,58.3,10.1,86.3,14.4,24.6,3.8,49.1,7.2,73.3,9.9,52,5.8,103.2,8.4,157.3,4.3M-147.7,904c40.6-39.7,125.3-66.3,207.6-74.3,49.7-4.8,98.7-3.5,155.5-.9,7.1.3,14.3.7,21.5,1,59.7,2.9,121.8,5.8,180.1,6.7,66.8,1.2,132.7-.5,200.2-8.1,78.1-8.7,141-17.7,196.4-40.3,15.9-6.5,30.5-14.1,43.6-22.4,24.6-15.7,44.6-33.8,61.8-52.2,23.4-25,43.2-50.6,71.4-74.5,3.6-3.1,7.4-6.1,11.3-9.1,34.4-26,85-49.6,145.7-59.1,27.7-4.3,55.9-5.7,85-4.7,53.9,1.8,105.7,12.2,158.4,21.2,29.8,5.1,59.4,9.8,87.9,13.5,25,3.3,50,6.1,74.3,8.1,52.6,4.3,103.5,5.2,157.2-.3M-149.3,901.7c41.5-39.3,128.7-64.5,209.6-70,49.1-3.3,96.1-.4,152.3,2.9,7,.4,14.1.8,21.4,1.2,59.3,3.2,121.4,5.2,179.2,5.2,66.1.1,131.3-2.9,198.6-10,79.3-8.4,143.6-14.2,201.8-35.6,16.7-6.1,32-13.6,45.7-21.8,25.7-15.5,46.6-33.9,64.1-52.5,23.8-25.3,43.2-51.4,71.4-75.7,3.6-3.1,7.4-6.2,11.3-9.2,34.4-26.5,85.9-50.6,147.9-59.5,28.4-4.1,56.9-4.9,86-3.5,54.2,2.7,106.2,13.8,159.7,22.8,30.4,5.1,60.6,9.3,89.7,12.5,25.5,2.8,50.8,5,75.6,6.3,53.1,2.8,103.6,2,156.9-4.8M-151.1,899.4c42.5-39,131.9-62.7,211.7-65.8,48.3-1.9,93.4,2.8,149.1,6.7,7,.5,14.1.9,21.2,1.4,58.9,3.6,121.1,4.6,178.4,3.7,65.3-1.1,129.9-5.2,197.1-12,80.5-8.1,146.3-10.7,207-30.9,17.5-5.8,33.6-13,47.9-21.2,26.9-15.3,48.7-34,66.4-52.8,24.2-25.7,43.2-52.3,71.3-77,3.6-3.2,7.4-6.3,11.3-9.4,34.4-27,86.8-51.6,150.2-60,28.9-3.8,57.8-4.3,87.2-2.3,54.4,3.6,106.7,15.5,161.1,24.4,30.8,5.1,61.7,9,91.4,11.6,26.1,2.4,51.8,3.9,76.6,4.5,53.5,1.3,103.9-1.3,156.8-9.3M-152.7,897.1c43.4-38.6,135.2-60.9,213.9-61.6,47.6-.4,90.9,5.9,146,10.5,7,.6,14,1.1,21,1.6,58.5,3.9,120.7,4.1,177.5,2.1,64.7-2.2,128.4-7.5,195.5-13.9,81.7-7.8,148.8-7.2,212.3-26.1,18.3-5.5,35.1-12.5,50-20.6,28.1-15.2,50.5-34,68.6-53.1,24.6-26,43.2-53.1,71.1-78.3,3.6-3.2,7.4-6.4,11.3-9.6,34.5-27.5,87.9-52.6,152.3-60.4,29.6-3.6,58.7-3.5,88.3-1.1,54.7,4.4,107.1,17.1,162.3,26,31.3,5,62.8,8.5,93.2,10.7,26.5,1.9,52.7,2.8,77.7,2.7,54-.1,104.2-4.4,156.5-13.8M-154.4,894.7c44.2-38.2,138.5-59.1,216-57.4,46.9,1.1,88.2,9,142.8,14.2,6.9.7,13.8,1.3,20.8,1.8,58.1,4.3,120.3,3.5,176.5.6,64-3.3,126.9-9.9,193.9-15.9,82.9-7.4,151.5-3.7,217.5-21.4,19.1-5.1,36.6-12,52.3-20,29.2-15,52.6-34,70.8-53.3,25-26.4,43.2-53.9,71.1-79.5,3.6-3.3,7.3-6.5,11.3-9.8,34.5-28,88.9-53.6,154.6-60.8,30.1-3.3,59.7-2.8,89.5,0,55.1,5.3,107.7,18.8,163.6,27.6,31.9,5,64,8.1,94.8,9.7,27,1.4,53.5,1.7,78.9.9,54.4-1.6,104.5-7.6,156.2-18.4M-156,892.4c45.2-37.9,141.7-57.3,218.2-53.2,46.2,2.5,85.5,12.2,139.5,18,6.9.8,13.7,1.4,20.7,1.9,57.7,4.6,120,2.9,175.6-.9,63.2-4.4,125.6-12.2,192.4-17.8,84.2-7.1,154.2-.2,222.8-16.7,19.9-4.8,38.2-11.4,54.4-19.4,30.4-14.8,54.6-34,73.1-53.6,25.3-26.7,43.3-54.8,71-80.8,3.5-3.3,7.3-6.6,11.3-9.9,34.5-28.5,89.8-54.6,156.8-61.3,30.8-3.1,60.6-2.1,90.7,1.3,55.4,6.1,108.2,20.4,165,29.1,32.4,4.9,65.1,7.8,96.5,8.8,27.4.9,54.4.6,80-.9,55-3.1,104.7-10.8,156.1-22.9M-157.8,890c46.1-37.5,145.1-55.4,220.3-48.9,45.6,3.9,82.9,15.3,136.5,21.8,6.7.8,13.6,1.6,20.6,2.1,57.3,5,119.6,2.4,174.8-2.4,62.5-5.5,124.1-14.5,190.8-19.7,85.4-6.7,156.8,3.3,228.1-12,20.7-4.4,39.7-10.9,56.6-18.8,31.5-14.7,56.6-34.1,75.4-53.9,25.7-27,43.3-55.6,71-82.1,3.5-3.4,7.3-6.8,11.3-10.1,34.5-29,90.7-55.6,159-61.8,31.3-2.8,61.6-1.4,91.8,2.4,55.7,7,108.6,22.1,166.2,30.8,32.9,4.9,66.3,7.3,98.3,7.8,28,.4,55.4-.5,81.1-2.6,55.5-4.6,105-14.1,155.8-27.4M-159.4,887.7c47.1-37.2,148.3-53.6,222.4-44.7,44.8,5.5,80.3,18.4,133.2,25.6,6.7.9,13.4,1.7,20.4,2.3,56.9,5.3,119.4,1.9,173.8-3.9,61.7-6.6,122.6-16.8,189.3-21.7,86.7-6.3,159.4,6.8,233.4-7.3,21.4-4.1,41.1-10.3,58.7-18.2,32.7-14.5,58.6-34.1,77.7-54.1,26.1-27.4,43.3-56.4,70.8-83.3,3.5-3.4,7.3-6.9,11.3-10.3,34.5-29.5,91.7-56.6,161.2-62.2,32-2.6,62.5-.6,93,3.6,55.9,7.8,109.2,23.8,167.5,32.3,33.3,4.9,67.4,7,100,6.9,28.5,0,56.2-1.6,82.3-4.4,55.9-6.1,105.3-17.3,155.7-32M-161.1,885.3c48-36.8,151.6-51.9,224.5-40.5,44.1,6.9,77.7,21.6,130,29.4,6.6,1,13.4,1.8,20.2,2.5,56.5,5.7,119,1.3,172.9-5.5,61-7.7,121.3-19.1,187.7-23.6,87.9-6,162,10.3,238.6-2.5,22.2-3.7,42.8-9.8,60.9-17.5,33.7-14.3,60.6-34.1,80-54.4,26.5-27.7,43.3-57.2,70.8-84.6,3.5-3.5,7.3-7,11.2-10.5,34.5-30,92.6-57.6,163.5-62.7,32.5-2.3,63.5,0,94.1,4.8,56.3,8.6,109.6,25.4,168.8,33.9,33.9,4.8,68.6,6.6,101.6,6,28.9-.5,57.1-2.8,83.3-6.2,56.5-7.5,105.4-20.5,155.4-36.5M-162.9,883c48.9-36.5,154.9-50.1,226.7-36.3,43.4,8.4,75,24.7,126.9,33.1,6.6,1.1,13.3,2,20,2.7,56.1,6.1,118.7.8,171.9-7,60.4-8.8,119.8-21.4,186.2-25.6,89.1-5.6,164.7,13.8,243.9,2.2,23-3.4,44.2-9.3,63.2-17,35-14.2,62.6-34.2,82.3-54.7,26.9-28.1,43.3-58,70.7-85.8,3.5-3.6,7.3-7.1,11.2-10.6,34.5-30.5,93.6-58.6,165.6-63.1,33.2-2.1,64.4.8,95.3,6,56.6,9.5,110.1,27.1,170.1,35.5,34.4,4.8,69.6,6.1,103.4,5,29.4-1,58.1-3.8,84.4-8,56.9-9,105.7-23.7,155.1-41M-164.5,880.7c49.9-36.1,158.2-48.2,228.8-32,42.8,9.8,72.3,27.8,123.7,36.9,6.5,1.2,13.2,2.1,19.9,2.9,55.7,6.4,118.3.3,171.1-8.5,59.6-9.9,118.3-23.7,184.6-27.5,90.3-5.2,167.4,17.4,249.1,6.9,23.8-3,45.7-8.8,65.3-16.4,36.2-14,64.7-34.2,84.6-55,27.3-28.4,43.3-58.8,70.7-87.1,3.5-3.6,7.3-7.2,11.2-10.8,34.5-31.1,94.5-59.6,167.8-63.5,33.7-1.8,65.3,1.5,96.4,7.2,56.9,10.3,110.6,28.8,171.4,37.1,35,4.8,70.7,5.8,105.1,4.1,29.8-1.4,58.9-4.9,85.6-9.8,57.4-10.5,105.9-26.9,155-45.5M-166.3,878.4c50.7-35.8,161.5-46.4,231-27.8,42.1,11.3,69.8,30.9,120.5,40.7,6.5,1.3,13,2.3,19.8,3.1,55.3,6.8,118-.3,170.2-10,58.9-10.9,117-26,183-29.4,91.5-4.8,169.9,20.9,254.5,11.7,24.6-2.6,47.2-8.2,67.5-15.7,37.2-13.9,66.7-34.3,86.8-55.3,27.6-28.8,43.3-59.6,70.6-88.3,3.5-3.7,7.3-7.3,11.2-11,34.5-31.6,95.4-60.6,170.1-64,34.3-1.5,66.3,2.2,97.6,8.4,57.3,11.2,111,30.4,172.7,38.7,35.5,4.7,71.9,5.4,106.9,3.1,30.4-1.9,59.8-6,86.7-11.6,57.9-12,106.2-30.1,154.7-50M-167.9,876c51.6-35.4,164.8-44.6,233-23.6,41.4,12.8,67.1,34.1,117.4,44.5,6.5,1.3,12.9,2.4,19.6,3.3,54.8,7.1,117.6-.8,169.3-11.5,58.2-12,115.5-28.3,181.5-31.4,92.9-4.4,172.6,24.4,259.7,16.4,25.4-2.3,48.8-7.7,69.6-15.1,38.3-13.7,68.7-34.3,89.1-55.6,28-29.1,43.3-60.5,70.6-89.7,3.5-3.8,7.3-7.5,11.2-11.2,34.5-32.1,96.4-61.6,172.2-64.4,35-1.3,67.2,2.9,98.8,9.6,57.5,12,111.6,32.1,174,40.2,36,4.6,73,4.9,108.5,2.1,30.9-2.4,60.8-7.1,87.8-13.4,58.3-13.5,106.5-33.3,154.6-54.6M-169.6,873.7c52.6-35.1,168-42.8,235.1-19.4,40.6,14.2,64.5,37.2,114.1,48.2,6.3,1.4,12.8,2.6,19.4,3.4,54.4,7.5,117.4-1.4,168.3-13.1,57.5-13.1,114-30.6,179.9-33.3,94.1-4,175.2,27.9,265,21.1,26.2-1.9,50.3-7.1,71.8-14.5,39.5-13.5,70.7-34.3,91.4-55.8,28.4-29.4,43.4-61.3,70.4-90.9,3.5-3.8,7.1-7.6,11.2-11.3,34.5-32.6,97.3-62.7,174.5-64.9,35.5-1,68.2,3.6,99.9,10.8,57.8,12.8,112.1,33.8,175.3,41.8,36.4,4.6,74.2,4.6,110.2,1.2,31.3-2.9,61.6-8.3,89-15.2,58.9-14.9,106.7-36.5,154.3-59.1M-171.2,871.4c53.5-34.7,171.4-41,237.3-15.1,39.9,15.7,61.8,40.3,110.9,52.1,6.3,1.5,12.6,2.7,19.2,3.6,54,7.8,117-1.9,167.4-14.6,56.7-14.2,112.7-32.8,178.4-35.3,95.3-3.6,177.9,31.4,270.2,25.8,27-1.6,51.8-6.6,73.9-13.9,40.6-13.4,72.7-34.4,93.7-56.1,28.8-29.8,43.4-62.1,70.4-92.2,3.5-3.9,7.1-7.7,11.2-11.5,34.5-33.1,98.3-63.7,176.6-65.3,36.2-.8,69.1,4.4,101.1,12,58.2,13.7,112.5,35.5,176.6,43.4,37,4.6,75.3,4.2,112,.3,31.9-3.4,62.5-9.3,90.1-17,59.3-16.4,106.9-39.8,154.1-63.6M-173,869c54.4-34.3,174.6-39.2,239.4-10.9,39.3,17.2,59.2,43.5,107.8,55.8,6.2,1.6,12.6,2.8,19.1,3.8,53.6,8.2,116.6-2.4,166.6-16.1,56.1-15.3,111.2-35,176.8-37.3,96.5-3.1,180.4,34.8,275.5,30.5,27.8-1.3,53.4-6.1,76.2-13.3,41.8-13.2,74.7-34.4,96-56.4,29.2-30.1,43.4-63,70.3-93.4,3.5-3.9,7.1-7.8,11.2-11.7,34.5-33.6,99.2-64.7,178.9-65.8,36.7-.5,70,5.1,102.2,13.2,58.5,14.6,113.1,37.1,177.9,45,37.5,4.5,76.5,3.8,113.7-.7,32.3-3.8,63.5-10.5,91.1-18.7,59.8-17.9,107.1-43,153.9-68.1M-174.6,866.7c55.4-34,178-37.4,241.6-6.6,38.6,18.6,56.6,46.6,104.6,59.6,56.7,15.3,129.2,2.8,184.6-13.6,55.4-16.4,109.7-37.3,175.2-39.2,97.7-2.8,183.1,38.3,280.8,35.3,80.8-2.6,143.3-35,176.6-69.4s46.8-72.4,81.3-106.5c34.7-34.1,100.3-65.7,181.1-66.2,105.1-.8,180.7,48.8,282.6,60.8,71,8.4,147.3-2.8,207.7-22.2,60.4-19.4,107.4-46.2,153.7-72.7M-174.1,863.5c56.6-33.8,178.8-37.3,243.9-7.3,26.8,12.3,44.5,28.9,67.8,42.6,11.2,6.5,23.5,12.3,38.9,16.6,12.5,3.5,25.8,5.6,39.5,6.8,48.3,3.8,102.2-6.1,145.9-18.5,6-1.7,12.1-3.5,18-5.3,50-15,100-31.8,158.6-33.8,74.6-2.5,142.6,20,213.9,29.9,21.2,2.9,42.9,4.8,65.1,4.3,79.5-1.4,140.9-30.8,175.3-62.8,7.9-7.4,15.1-15,21.6-22.7,21.8-25.9,37.8-53.7,64.9-79.6,10.2-9.7,22.9-19.2,37.4-28,35.9-21.4,84-37.8,139.7-39.2,29.2-.8,56.1,2.5,82,7.7,64.3,12.9,122.6,38,194.1,45.2,69.9,7.1,145.3-4.3,205.5-23.2,60.2-18.9,108.2-44.7,155.3-69.9M-173.7,860.4c57.9-33.5,179.6-37.1,246.3-7.8,27.4,12,46.1,28.3,69.8,42,11.3,6.5,23.7,12.4,39,16.8,12.4,3.6,25.7,5.9,39.4,7.1,48.3,4.4,102.6-4.9,146.9-17.1,6-1.7,12.2-3.4,18.3-5.1,50.7-14.7,101.1-31.5,159.8-33.8,73.9-3,142.1,18.3,212.8,28.3,21.1,3,42.3,4.9,64.1,4.9,78.1-.3,138.2-26.6,174.1-56.3,8.2-6.8,15.7-13.9,22.9-21.2,23.4-24.4,41.1-51.4,69-76.9,10.5-9.6,23.1-19,37.5-27.7,35.4-21.4,81.9-38,135.6-40.4,28.2-1.3,54.2,1.3,79.3,5.7,62.4,10.9,119.9,33.5,190.4,39.3,68.8,5.8,143.2-5.9,203.4-24.4,60.2-18.5,109-43.2,156.9-67M-173.1,857.2c59.2-33.3,180.4-37,248.6-8.4,28.1,11.8,47.7,27.8,71.8,41.4,11.4,6.5,23.8,12.5,39.1,17,12.4,3.7,25.4,6.1,39.1,7.5,48.3,4.9,103-3.8,148-15.7,6.2-1.6,12.4-3.3,18.6-5,51.4-14.3,102-31.1,161.1-33.9,73.4-3.4,141.7,16.5,211.7,26.7,21,3.1,41.9,5.2,63.3,5.5,76.8.9,135.8-22.4,172.7-49.7,8.6-6.3,16.4-12.8,23.9-19.7,25-22.9,44.5-49.1,73-74.2,10.6-9.5,23.3-18.8,37.5-27.4,34.8-21.2,79.7-38.2,131.5-41.6,27.2-1.8,52.3,0,76.8,3.6,60.6,8.9,117.4,28.9,186.6,33.5,67.6,4.4,141.2-7.4,201.4-25.4,60.2-18,109.7-41.7,158.5-64.2M-172.6,854.1c60.4-33,181.2-36.8,251-9,28.8,11.5,49.3,27.1,73.8,40.8,11.6,6.5,24.1,12.5,39.1,17.2,12.2,3.8,25.3,6.4,39,7.9,48.3,5.5,103.4-2.8,149.1-14.2,6.3-1.6,12.5-3.3,18.8-4.9,51.9-14,103.1-30.8,162.3-33.9,72.7-3.8,141.2,14.8,210.7,25.1,20.7,3.1,41.4,5.4,62.4,6,75.4,2.1,133.2-18.3,171.5-43.1,8.9-5.8,17.2-11.8,25.1-18.2,26.8-21.4,48-46.8,77-71.5,10.9-9.3,23.5-18.6,37.5-27.2,34.3-21.2,77.7-38.3,127.4-42.9,26.1-2.3,50.4-1.2,74.1,1.6,58.7,6.9,114.7,24.4,182.8,27.6,66.5,3.1,139-8.9,199.2-26.5,60.2-17.6,110.5-40.3,160.1-61.4M-172,850.9c61.7-32.8,182-36.7,253.4-9.5,29.4,11.2,51.1,26.6,75.8,40.3,11.7,6.5,24.2,12.6,39.3,17.4,12.2,3.9,25.1,6.6,38.7,8.3,48.3,6.1,103.8-1.6,150.2-12.8,6.3-1.6,12.8-3.1,19.1-4.8,52.6-13.7,104.2-30.4,163.5-34,72.1-4.3,140.6,13,209.6,23.6,20.6,3.1,40.9,5.6,61.6,6.5,74.1,3.2,130.8-14.1,170.2-36.6,9.1-5.2,17.9-10.7,26.3-16.7,28.4-19.8,51.4-44.5,81.1-68.9,11.2-9.1,23.8-18.4,37.5-26.9,33.7-21.1,75.6-38.6,123.4-44,25.1-2.8,48.4-2.4,71.4-.4,57,4.9,112,19.9,179.1,21.7,65.5,1.8,137-10.5,197.1-27.6,60.2-17.2,111.3-38.8,161.7-58.6M-171.5,847.7c62.9-32.5,182.8-36.5,255.7-10.1,30.1,10.9,52.7,25.9,77.8,39.7,11.8,6.5,24.3,12.7,39.4,17.5,12.1,3.9,25,6.8,38.6,8.7,48.3,6.6,104.1-.5,151.2-11.3,6.5-1.5,12.9-3.1,19.4-4.7,53.2-13.4,105.1-30.1,164.7-34,71.4-4.6,140.2,11.3,208.5,22,20.3,3.2,40.5,5.8,60.8,7,72.7,4.3,128.3-9.9,168.8-30,9.4-4.6,18.6-9.6,27.6-15.2,30-18.3,54.8-42.2,85.1-66.3,11.3-9,23.9-18.1,37.5-26.7,33.3-21,73.4-38.8,119.4-45.2,24.1-3.4,46.5-3.6,68.7-2.4,55.3,2.9,109.3,15.4,175.3,15.8,64.4.4,134.8-12,194.9-28.7,60.2-16.7,112-37.3,163.3-55.8M-171,844.6c64.1-32.2,183.6-36.4,258.1-10.7,30.8,10.6,54.3,25.3,79.9,39.1,12,6.5,24.5,12.7,39.4,17.7,12.1,4.1,24.9,7.1,38.3,9.1,48.1,7.2,104.5.6,152.3-9.9,6.6-1.4,13-2.9,19.6-4.6,53.9-13.1,106.2-29.8,165.9-34,70.7-5.1,139.7,9.6,207.3,20.4,20.2,3.3,39.9,6.1,59.8,7.6,71.4,5.5,125.8-5.8,167.6-23.4,9.7-4.1,19.2-8.6,28.8-13.7,31.6-16.7,58.2-39.9,89-63.6,11.6-8.9,24.2-17.9,37.5-26.4,32.8-20.9,71.3-39,115.2-46.5,23.1-3.9,44.6-4.9,66-4.5,53.4.9,106.6,10.9,171.5,9.9,63.3-.9,132.8-13.5,192.8-29.8,60.1-16.3,112.8-35.8,165-53M-170.4,841.4c65.5-32,184.4-36.3,260.4-11.2,31.5,10.3,56.1,24.7,81.9,38.5,12.1,6.5,24.7,12.8,39.5,17.9,12,4.1,24.6,7.3,38.2,9.5,48.1,7.8,104.9,1.7,153.4-8.5,6.6-1.4,13.3-2.9,19.8-4.4,54.6-12.8,107.3-29.4,167.1-34.1,70.2-5.5,139.1,7.8,206.2,18.9,19.9,3.3,39.5,6.3,59,8.1,70,6.6,123.4-1.6,166.3-16.9,9.9-3.6,19.9-7.5,30-12.1,33.2-15.2,61.6-37.7,93-61,11.7-8.7,24.5-17.7,37.5-26.2,32.3-20.9,69.1-39.2,111.2-47.7,22-4.4,42.8-6.1,63.5-6.5,51.6-1.1,103.9,6.4,167.8,4,62.1-2.3,130.7-15,190.8-30.9,60.1-15.9,113.6-34.3,166.4-50.2M-169.9,838.3c66.7-31.7,185.3-36.1,262.8-11.8,32.1,10,57.7,24.1,83.9,38,12.2,6.5,24.9,12.8,39.5,18,12,4.3,24.5,7.6,38,9.9,48.1,8.3,105.3,2.8,154.3-7,6.7-1.4,13.4-2.8,20-4.3,55.3-12.5,108.2-29,168.3-34.1,69.5-5.9,138.7,6.1,205.1,17.3,19.8,3.3,39,6.5,58.1,8.6,68.7,7.8,121,2.6,165.1-10.3,10.4-3,20.7-6.5,31.2-10.6,34.8-13.7,65.1-35.3,97.1-58.3,12-8.6,24.6-17.4,37.6-25.9,31.7-20.8,66.9-39.4,107.1-48.9,21-4.9,40.9-7.3,60.8-8.6,49.9-3.1,101.4,1.8,164-1.9,61-3.6,128.5-16.5,188.6-32,60.1-15.4,114.3-32.9,168-47.4M-169.4,835.2c68-31.5,186.2-36,265.1-12.4,32.8,9.8,59.3,23.6,85.9,37.3,12.5,6.5,25,12.9,39.7,18.2,11.8,4.3,24.3,7.8,37.8,10.3,48.1,8.9,105.7,3.9,155.4-5.6,6.9-1.3,13.6-2.7,20.3-4.2,55.9-12.2,109.3-28.6,169.5-34.1,68.8-6.3,138.2,4.3,204.1,15.7,19.6,3.4,38.4,6.7,57.3,9.2,67.4,9,118.6,6.8,163.7-3.8,10.6-2.4,21.4-5.4,32.4-9.1,36.4-12.2,68.4-33.1,101.1-55.6,12.2-8.5,24.9-17.2,37.6-25.6,31.2-20.7,64.8-39.6,103.1-50.1,20-5.5,39-8.6,58.1-10.6,48.1-5.2,98.7-2.7,160.2-7.8,60-4.9,126.5-18,186.5-33.1,60.1-15,115.1-31.4,169.7-44.6M-168.8,832c69.2-31.2,187-35.8,267.5-13,33.5,9.5,60.9,22.9,87.9,36.8,12.6,6.5,25.1,13,39.8,18.4,11.7,4.4,24.2,8,37.6,10.7,48.1,9.5,106.1,5,156.5-4.1,6.9-1.3,13.8-2.6,20.6-4.1,56.6-11.8,110.4-28.3,170.7-34.1,68.2-6.6,137.8,2.6,203,14.2,19.4,3.4,38,7,56.5,9.7,66.1,10.1,116.2,11,162.5,2.8,10.9-1.9,22-4.3,33.6-7.5,37.9-10.7,71.9-30.8,105.1-53,12.4-8.3,25.1-17,37.6-25.4,30.7-20.6,62.6-39.8,99.1-51.3,19-6,37.1-9.8,55.4-12.7,46.4-7.2,96-7.2,156.5-13.7,58.9-6.2,124.4-19.6,184.3-34.1,60.1-14.5,115.9-29.9,171.3-41.8M-168.3,828.8c70.4-30.9,187.8-35.6,269.9-13.5,34.1,9.1,62.6,22.4,89.9,36.2,12.8,6.5,25.4,13,39.8,18.6,11.7,4.5,24.1,8.3,37.4,11.1,48.1,10.1,106.5,6.1,157.6-2.7,7-1.2,14-2.5,20.8-3.9,57.1-11.5,111.3-27.9,171.9-34.2,67.6-7,137.3.9,201.9,12.5,19.2,3.4,37.5,7.1,55.5,10.3,64.8,11.3,113.7,15.2,161.2,9.3,11.3-1.4,22.7-3.3,34.8-6,39.5-9.1,75.3-28.5,109.2-50.3,12.6-8.1,25.3-16.7,37.6-25.1,30.1-20.5,60.5-40,94.9-52.6,17.9-6.5,35.2-11,52.7-14.7,44.6-9.3,93.3-11.7,152.7-19.5,57.8-7.5,122.3-21.1,182.3-35.2,60-14.1,116.7-28.4,172.9-39M-167.7,825.6c71.8-30.7,188.6-35.5,272.2-14.1,34.8,8.9,64.3,21.7,92,35.6,12.9,6.5,25.5,13.1,39.9,18.8,11.6,4.6,23.8,8.5,37.2,11.5,48,10.7,106.9,7.3,158.6-1.3,7.1-1.2,14.1-2.4,21.1-3.8,57.8-11.2,112.4-27.5,173.2-34.2,66.9-7.4,136.7-.9,200.8,11,19,3.5,37,7.4,54.7,10.8,63.5,12.4,111.4,19.4,159.8,15.9,11.6-.8,23.4-2.1,36-4.5,41.1-7.6,78.6-26.2,113.2-47.7,12.9-8,25.5-16.5,37.6-24.9,29.6-20.4,58.3-40.2,90.9-53.8,16.9-7,33.3-12.3,50.1-16.7,42.9-11.3,90.6-16.2,149-25.4,56.6-8.8,120.2-22.7,180.1-36.3s117.4-26.9,174.5-36.2M-167.2,822.5c73-30.4,189.4-35.4,274.6-14.7,35.5,8.6,65.9,21.2,94,35,13,6.5,25.7,13.2,39.9,19,11.6,4.7,23.7,8.8,37.1,11.8,48,11.2,107.3,8.4,159.7.1,7.1-1.1,14.3-2.4,21.4-3.7,58.5-11,113.5-27.1,174.4-34.3,66.3-7.8,136.3-2.6,199.8,9.4,18.8,3.6,36.6,7.6,53.8,11.3,62.1,13.5,109,23.6,158.6,22.5,11.8-.3,24.1-1.1,37.1-2.9,42.8-6.1,82.1-23.9,117.1-45,13-7.9,25.8-16.3,37.6-24.6,29-20.4,56.2-40.4,86.8-54.9,15.9-7.5,31.3-13.5,47.5-18.7,41.1-13.3,87.9-20.7,145.2-31.3,55.5-10.2,118.2-24.2,178-37.4,60-13.2,118.2-25.5,176.1-33.4M-166.7,819.4c74.3-30.2,190.2-35.3,276.9-15.2,36.2,8.3,67.6,20.5,96,34.5,13.2,6.5,25.9,13.2,40.1,19.1,11.4,4.8,23.5,9,36.8,12.2,48,11.8,107.5,9.5,160.8,1.6,7.3-1.1,14.5-2.3,21.6-3.6,59.2-10.7,114.5-26.8,175.6-34.3,65.7-8.1,135.8-4.4,198.7,7.8,18.6,3.6,36,7.8,53,11.9,60.8,14.7,106.6,27.8,157.3,29.1,12.2.3,24.9,0,38.3-1.4,44.2-4.6,85.5-21.6,121.1-42.4,13.3-7.8,26.1-16,37.6-24.4,28.6-20.3,54-40.6,82.8-56.2,14.9-8.1,29.4-14.8,44.8-20.8,39.3-15.4,85.4-25.2,141.4-37.2,54.4-11.5,116-25.7,175.8-38.5,60-12.8,119-24,177.7-30.6M-166.1,816.2c75.6-29.9,191-35.1,279.4-15.8,36.8,8,69.2,19.9,98,33.9,13.3,6.5,26.1,13.3,40.2,19.3,11.4,4.9,23.4,9.2,36.7,12.7,48,12.3,108,10.6,161.9,3,7.4-1.1,14.7-2.2,21.9-3.4,59.8-10.3,115.5-26.3,176.8-34.3,65.1-8.5,135.4-6.1,197.6,6.3,18.4,3.6,35.6,8,52.2,12.4,59.4,15.9,104.2,32.1,156.1,35.6,12.5.9,25.5,1.1,39.5,0,45.8-3.1,89-19.3,125.2-39.7,13.4-7.6,26.2-15.9,37.8-24.1,28.1-20.2,51.9-40.8,78.6-57.4,13.8-8.6,27.6-16,42.1-22.8,37.5-17.5,82.7-29.8,137.7-43.2,53.4-12.8,114-27.3,173.8-39.6,60-12.3,119.6-22.6,179.3-27.8M-165.6,813c76.8-29.7,191.8-35,281.8-16.4,37.5,7.8,70.8,19.4,100,33.3,13.4,6.5,26.2,13.3,40.2,19.5,11.3,5,23.1,9.5,36.4,13,48,12.9,108.4,11.7,162.9,4.4,7.4-1,14.8-2.1,22-3.3,60.5-10,116.6-25.9,178-34.4,64.4-8.8,134.8-7.8,196.5,4.7,18.1,3.7,35.1,8.2,51.2,13,58.1,17,101.8,36.3,154.7,42.2,12.8,1.4,26.2,2.1,40.7,1.6,47.5-1.6,92.4-17,129.2-37.1,13.7-7.5,26.5-15.6,37.8-23.8,27.6-20.1,49.7-41,74.6-58.6,12.8-9.1,25.7-17.3,39.4-24.9,35.6-19.5,80-34.3,133.9-49.1,52.2-14.2,111.8-28.8,171.7-40.7,59.8-12,120.5-21.1,180.8-24.9M-165,809.9c78.1-29.4,192.6-34.8,284.1-16.9,38.2,7.5,72.6,18.7,102,32.7,13.6,6.5,26.3,13.4,40.3,19.7,11.3,5.1,23,9.7,36.3,13.4,48,13.5,108.8,12.8,164,5.9,7.5-.9,15.1-2,22.3-3.2,61.2-9.7,117.6-25.5,179.2-34.4,63.9-9.2,134.3-9.6,195.5,3.1,18,3.8,34.5,8.5,50.4,13.5,56.7,18.2,99.3,40.5,153.5,48.7,13,2,26.9,3.1,41.9,3.1,49.1-.1,95.7-14.7,133.2-34.4,14-7.3,26.8-15.3,37.8-23.6,27-20,47.7-41.2,70.6-59.8,11.8-9.6,23.7-18.5,36.8-26.9,33.9-21.6,77.3-38.8,130.1-54.9,51.1-15.5,109.8-30.3,169.5-41.8,59.8-11.5,121.3-19.5,182.4-22.2M-164.5,806.7c79.3-29.2,193.5-34.6,286.5-17.5,38.9,7.1,74.2,18.2,104.1,32.1,13.8,6.5,26.6,13.5,40.3,19.9,11.2,5.2,22.9,10,36,13.8,47.9,14,109.2,13.9,165,7.3,7.7-.9,15.2-1.9,22.6-3.1,61.7-9.4,118.7-25.1,180.4-34.5,63.2-9.5,133.9-11.3,194.4,1.6,17.9,3.8,34.1,8.6,49.5,14,55.4,19.3,96.9,44.8,152.2,55.3,13.3,2.5,27.6,4.2,43.2,4.6,50.7,1.4,99.2-12.5,137.3-31.8,14.1-7.2,26.9-15.2,37.8-23.3,26.5-19.9,45.6-41.3,66.5-61,10.9-10.1,21.8-19.8,34.1-28.9,32-23.7,74.6-43.4,126.4-60.8,50-16.9,107.7-31.8,167.4-42.9,59.8-11.1,122.1-18.1,184-19.4M-164,803.6c80.5-28.9,194.3-34.5,288.8-18.1,39.5,6.9,75.8,17.5,106.1,31.6,14,6.5,26.8,13.5,40.5,20,11,5.3,22.7,10.2,35.9,14.2,47.9,14.6,109.6,15,166,8.8,7.7-.9,15.3-1.8,22.9-2.9,62.4-9.1,119.8-24.6,181.6-34.5,62.6-9.8,133.4-13.1,193.3,0,17.6,3.8,33.6,8.9,48.7,14.6,54,20.5,94.4,49.1,151,61.8,13.7,3.1,28.2,5.3,44.4,6.2,52.3,2.9,102.6-10.1,141.3-29.1,14.4-7,27.2-14.9,37.8-23.1,25.9-19.9,43.4-41.5,62.5-62.2,9.8-10.7,19.8-21.1,31.5-30.9,30-25.7,71.9-47.9,122.6-66.7,48.9-18.2,105.7-33.3,165.2-43.9,59.8-10.7,122.7-16.6,185.7-16.5M-163.4,800.4c116.2-40.7,295.6-35.1,399.3,12.3,25.4,11.7,46.8,25.5,76.2,34.8,54.4,17.2,127.2,16.2,190.2,7.4,63-8.8,120.9-24.2,182.8-34.5,62-10.3,132.8-14.8,192.2-1.6,95.4,21.2,138.9,82.8,242.9,91.2,73.8,6,144.5-19.3,183.1-49.2,38.6-29.9,55.1-64.9,87.1-96.5,82.7-81.5,276.1-135.6,469.3-131.4"/>
  </g>
</svg>