<svg width="164" height="48" viewBox="0 0 164 48" fill="none" xmlns="http://www.w3.org/2000/svg">
<path fill-rule="evenodd" clip-rule="evenodd" d="M163.552 0.000396729L50.1511 0.000403839L49.0901 3.93206C46.7025 1.48171 43.2854 0.000403839 39.6851 0.000403839H21.7392L18.8006 10.922C18.7087 10.9207 18.6166 10.92 18.5243 10.92C8.2936 10.92 0 19.2136 0 29.4443C0 39.6749 8.2936 47.9685 18.5243 47.9685C24.1866 47.9685 29.2556 45.4795 32.6535 41.4761H96.7613L97.3457 39.1427L99.1375 41.4761H144.761L150.51 18.5247H158.865L163.552 0.000396729ZM35.4438 36.9974H38.7323C38.8484 36.9974 38.9633 36.9958 39.0772 36.9927C39.4609 36.9821 39.8322 36.9539 40.1909 36.909C40.9604 36.8126 41.6722 36.6392 42.3253 36.3977C43.2476 36.0566 44.053 35.5798 44.7387 34.9922C45.0096 34.76 45.2619 34.5105 45.4953 34.2453L44.7387 37.049H55.3256L62.0038 10.3375L63.3019 14.0975H70.0392L63.8455 37.049H74.4324L80.1808 14.0975L92.3301 14.0971L88.0187 16.1161L82.7193 37.0487H93.3062L95.3041 29.0716L101.346 37.0486L116.681 37.049L104.781 22.078L121.833 4.42719H108.802L99.1456 14.0971L101.477 4.42719H53.5419L48.9551 21.4245C48.9712 21.485 48.9869 21.5459 49.0021 21.6072C49.2564 22.6285 49.3981 23.7634 49.3981 24.9587C49.3981 25.249 49.3898 25.5356 49.3735 25.818C49.3638 25.9856 49.3513 26.1517 49.3362 26.316C49.3348 26.3312 49.3334 26.3463 49.3319 26.3614C49.3122 26.5672 49.2883 26.7704 49.2603 26.9705C49.2581 26.9862 49.2559 27.0019 49.2537 27.0175C49.2296 27.1858 49.2026 27.3519 49.1728 27.5157C49.096 27.9379 49.0007 28.3446 48.8887 28.7327C48.4454 30.2684 47.74 31.512 46.8813 32.2645C47.2959 31.2033 47.5656 29.979 47.6401 28.6621C47.6643 28.2349 47.667 27.8137 47.6497 27.4014C47.6378 27.119 47.6166 26.8408 47.5864 26.5676L47.5857 26.5608C47.5841 26.5462 47.5824 26.5317 47.5808 26.5173L47.5685 26.5627C47.5669 26.5482 47.5652 26.5337 47.5635 26.5192L47.5626 26.5124C47.5282 26.2241 47.4819 25.9439 47.4234 25.672C47.3708 25.4275 47.3083 25.1896 47.2359 24.9587C47.0658 24.4166 46.8406 23.9124 46.5583 23.4484C46.4095 23.2037 46.2447 22.9702 46.0638 22.7482C45.9374 22.5932 45.8032 22.4437 45.6609 22.3C45.2947 21.9301 44.8756 21.598 44.4016 21.3057C43.8272 20.9514 43.1723 20.6556 42.4338 20.4215L42.433 20.4212C42.4187 20.4167 42.4044 20.4122 42.3901 20.4077L42.3725 20.4023C42.3537 20.4005 42.3392 20.3848 42.3392 20.366C42.3392 20.3563 42.3431 20.3474 42.3494 20.3408C42.3553 20.3347 42.3634 20.3306 42.3725 20.3297L42.3794 20.3282L42.3967 20.3243C43.3989 20.0957 44.2482 19.7279 44.9589 19.2408C45.4187 18.9256 45.8205 18.5606 46.1682 18.1511C46.3444 17.9435 46.5068 17.7245 46.6557 17.4948C47.5946 16.0467 48.0008 14.1726 48.0008 12.0503C48.0008 11.1999 47.8451 10.3784 47.5579 9.60965C46.4414 6.62 43.3384 4.42719 39.6851 4.42719H25.1327L23.224 11.5214C31.1788 13.6016 37.0485 20.8375 37.0485 29.4443C37.0485 32.1344 36.4751 34.6907 35.4438 36.9974ZM17.602 15.3769L16.6295 18.9916L20.9358 20.1237C26.7302 21.6471 30.7573 26.6314 30.7573 32.2986C30.7573 33.4924 30.5823 34.6412 30.257 35.7276L29.4831 38.3124C26.8986 41.5023 22.9496 43.5414 18.5243 43.5414C10.7387 43.5414 4.42718 37.2299 4.42718 29.4443C4.42718 21.9685 10.2463 15.8519 17.602 15.3769ZM121.847 4.42719H157.865L155.418 14.0975H147.055L141.306 37.049H130.719L136.913 14.0975H129.961L128.738 10.3375L122.083 37.049H116.74L113.641 29.0991L118.714 10.3024L121.847 4.42719Z" fill="black"/>
<path fill-rule="evenodd" clip-rule="evenodd" d="M99.1466 14.0976L108.803 4.42719H121.834L104.782 22.0783L112.778 32.1825L116.682 37.0485L101.347 37.0485L95.3051 29.0719L93.3072 37.0485H82.7203L88.0197 16.1164L92.3311 14.0976L80.1818 14.0978L74.4334 37.0485H63.8465L70.0402 14.0978H63.3029L62.0048 10.3378L55.3266 37.0485H44.7397L45.4963 34.2457C44.0011 35.9447 41.7317 37.0485 38.7333 37.0485H34.4992C34.9461 35.5558 35.1854 33.9287 35.1854 32.299C35.1854 24.4459 29.6284 17.8315 22.0625 15.8424L25.1337 4.42719H39.6861C44.2788 4.42719 48.0018 7.89282 48.0018 12.0507C48.0018 16.2085 46.4426 19.4135 42.3735 20.3301C42.3644 20.3309 42.3563 20.335 42.3504 20.3411C42.3441 20.3477 42.3402 20.3566 42.3402 20.3664C42.3402 20.3852 42.3547 20.4009 42.3735 20.4026C45.5766 21.3969 47.2367 23.4953 47.5818 26.5176C47.6606 27.2051 47.6828 27.9247 47.6411 28.6625C47.5666 29.9793 47.2969 31.2036 46.8823 32.2648C48.3711 30.9601 49.3991 28.1791 49.3991 24.9591C49.3991 23.692 49.2399 22.4928 48.9561 21.4249L53.5429 4.42719H101.478L99.1466 14.0976ZM116.741 37.0485H122.084L128.739 10.3378L129.962 14.0978H136.914L130.72 37.0485H141.307L147.056 14.0978H155.419L157.866 4.42719H158.04H121.848L118.715 10.3027L113.642 29.0995L116.741 37.0485Z" fill="white"/>
<ellipse cx="18.5229" cy="29.4439" rx="14.0971" ry="14.0971" fill="#FF4400"/>
</svg>
